<svg width="20" height="20" viewBox="0 0 20 20" fill="none" xmlns="http://www.w3.org/2000/svg">
  <path d="M15.3536 15.3536L4.64645 4.64645M8.33333 3.33333C8.8714 3.33333 9.43572 3.33333 10 3.33333C15.8333 3.33333 19.1667 10 19.1667 10C19.1667 10 18.0556 12.2222 16.1111 14.1667M12.5 10C12.5 11.3807 11.3807 12.5 10 12.5C9.46428 12.5 8.96428 12.3315 8.55132 12.0441M6.11111 6.11111C4.16667 8.05556 0.833333 10 0.833333 10C0.833333 10 4.16667 16.6667 10 16.6667C10.5643 16.6667 11.1286 16.6667 11.6667 16.6667" stroke="#AFB6C2" stroke-width="2" stroke-linecap="round" stroke-linejoin="round"/>
</svg>
