<svg width="116" height="29" viewBox="0 0 116 29" fill="none" xmlns="http://www.w3.org/2000/svg">
<path d="M19.6795 0.5L0.5 18.5C12.0774 8.9 27.9906 14.5 34.5 18.5L19.6795 0.5Z" stroke="#D4CCB6" stroke-linejoin="round"/>
<path d="M19.6795 3.5L0.5 21.5C12.0774 11.9 27.9906 17.5 34.5 21.5L19.6795 3.5Z" stroke="#D4CCB6" stroke-linejoin="round"/>
<path d="M39.004 16.478C39.004 15.434 39.214 14.522 39.634 13.742C40.066 12.962 40.66 12.362 41.416 11.942C42.184 11.522 43.06 11.312 44.044 11.312C45.304 11.312 46.354 11.642 47.194 12.302C48.046 12.962 48.604 13.892 48.868 15.092H45.592C45.316 14.324 44.782 13.94 43.99 13.94C43.426 13.94 42.976 14.162 42.64 14.606C42.304 15.038 42.136 15.662 42.136 16.478C42.136 17.294 42.304 17.924 42.64 18.368C42.976 18.8 43.426 19.016 43.99 19.016C44.782 19.016 45.316 18.632 45.592 17.864H48.868C48.604 19.04 48.046 19.964 47.194 20.636C46.342 21.308 45.292 21.644 44.044 21.644C43.06 21.644 42.184 21.434 41.416 21.014C40.66 20.594 40.066 19.994 39.634 19.214C39.214 18.434 39.004 17.522 39.004 16.478ZM49.9024 16.46C49.9024 15.428 50.0944 14.522 50.4784 13.742C50.8744 12.962 51.4084 12.362 52.0804 11.942C52.7524 11.522 53.5024 11.312 54.3304 11.312C55.0384 11.312 55.6564 11.456 56.1844 11.744C56.7244 12.032 57.1384 12.41 57.4264 12.878V11.456H60.5044V21.5H57.4264V20.078C57.1264 20.546 56.7064 20.924 56.1664 21.212C55.6384 21.5 55.0204 21.644 54.3124 21.644C53.4964 21.644 52.7524 21.434 52.0804 21.014C51.4084 20.582 50.8744 19.976 50.4784 19.196C50.0944 18.404 49.9024 17.492 49.9024 16.46ZM57.4264 16.478C57.4264 15.71 57.2104 15.104 56.7784 14.66C56.3584 14.216 55.8424 13.994 55.2304 13.994C54.6184 13.994 54.0964 14.216 53.6644 14.66C53.2444 15.092 53.0344 15.692 53.0344 16.46C53.0344 17.228 53.2444 17.84 53.6644 18.296C54.0964 18.74 54.6184 18.962 55.2304 18.962C55.8424 18.962 56.3584 18.74 56.7784 18.296C57.2104 17.852 57.4264 17.246 57.4264 16.478ZM75.5472 11.348C76.7952 11.348 77.7852 11.726 78.5172 12.482C79.2612 13.238 79.6332 14.288 79.6332 15.632V21.5H76.5732V16.046C76.5732 15.398 76.3992 14.9 76.0512 14.552C75.7152 14.192 75.2472 14.012 74.6472 14.012C74.0472 14.012 73.5732 14.192 73.2252 14.552C72.8892 14.9 72.7212 15.398 72.7212 16.046V21.5H69.6612V16.046C69.6612 15.398 69.4872 14.9 69.1392 14.552C68.8032 14.192 68.3352 14.012 67.7352 14.012C67.1352 14.012 66.6612 14.192 66.3132 14.552C65.9772 14.9 65.8092 15.398 65.8092 16.046V21.5H62.7312V11.456H65.8092V12.716C66.1212 12.296 66.5292 11.966 67.0332 11.726C67.5372 11.474 68.1072 11.348 68.7432 11.348C69.4992 11.348 70.1712 11.51 70.7592 11.834C71.3592 12.158 71.8272 12.62 72.1632 13.22C72.5112 12.668 72.9852 12.218 73.5852 11.87C74.1852 11.522 74.8392 11.348 75.5472 11.348ZM84.8639 12.878C85.1639 12.41 85.5779 12.032 86.1059 11.744C86.6339 11.456 87.2519 11.312 87.9599 11.312C88.7879 11.312 89.5379 11.522 90.2099 11.942C90.8819 12.362 91.4099 12.962 91.7939 13.742C92.1899 14.522 92.3879 15.428 92.3879 16.46C92.3879 17.492 92.1899 18.404 91.7939 19.196C91.4099 19.976 90.8819 20.582 90.2099 21.014C89.5379 21.434 88.7879 21.644 87.9599 21.644C87.2639 21.644 86.6459 21.5 86.1059 21.212C85.5779 20.924 85.1639 20.552 84.8639 20.096V26.288H81.7859V11.456H84.8639V12.878ZM89.2559 16.46C89.2559 15.692 89.0399 15.092 88.6079 14.66C88.1879 14.216 87.6659 13.994 87.0419 13.994C86.4299 13.994 85.9079 14.216 85.4759 14.66C85.0559 15.104 84.8459 15.71 84.8459 16.478C84.8459 17.246 85.0559 17.852 85.4759 18.296C85.9079 18.74 86.4299 18.962 87.0419 18.962C87.6539 18.962 88.1759 18.74 88.6079 18.296C89.0399 17.84 89.2559 17.228 89.2559 16.46ZM95.4427 21.644C94.9027 21.644 94.4587 21.488 94.1107 21.176C93.7747 20.852 93.6067 20.456 93.6067 19.988C93.6067 19.508 93.7747 19.106 94.1107 18.782C94.4587 18.458 94.9027 18.296 95.4427 18.296C95.9707 18.296 96.4027 18.458 96.7387 18.782C97.0867 19.106 97.2607 19.508 97.2607 19.988C97.2607 20.456 97.0867 20.852 96.7387 21.176C96.4027 21.488 95.9707 21.644 95.4427 21.644ZM100.631 10.412C100.091 10.412 99.6468 10.256 99.2988 9.944C98.9628 9.62 98.7948 9.224 98.7948 8.756C98.7948 8.276 98.9628 7.88 99.2988 7.568C99.6468 7.244 100.091 7.082 100.631 7.082C101.159 7.082 101.591 7.244 101.927 7.568C102.275 7.88 102.449 8.276 102.449 8.756C102.449 9.224 102.275 9.62 101.927 9.944C101.591 10.256 101.159 10.412 100.631 10.412ZM102.161 11.456V21.5H99.0828V11.456H102.161ZM110.511 11.348C111.687 11.348 112.623 11.732 113.319 12.5C114.027 13.256 114.381 14.3 114.381 15.632V21.5H111.321V16.046C111.321 15.374 111.147 14.852 110.799 14.48C110.451 14.108 109.983 13.922 109.395 13.922C108.807 13.922 108.339 14.108 107.991 14.48C107.643 14.852 107.469 15.374 107.469 16.046V21.5H104.391V11.456H107.469V12.788C107.781 12.344 108.201 11.996 108.729 11.744C109.257 11.48 109.851 11.348 110.511 11.348Z" fill="#D5CCB6"/>
</svg>
